<svg width="623" height="206" viewBox="0 0 623 206" fill="none" xmlns="http://www.w3.org/2000/svg">
<rect x="0.5" y="0.5" width="622" height="205" rx="4.5" stroke="#7B61FF" stroke-dasharray="10 5"/>
<path d="M43.1075 61.127C42.6303 61.7785 42.0608 62.4569 41.3971 63.1548C39.0545 65.6178 36.1816 67.6443 34.3274 68.7038L34.0154 68.8821C32.7691 69.5942 32 70.9196 32 72.355V82C32 84.2091 33.7909 86 36 86H75C77.2091 86 79 84.2091 79 82V72.355C79 70.9196 78.2309 69.5943 76.9846 68.8821L76.6727 68.7038C74.8185 67.6443 71.9455 65.6178 69.6029 63.1548C68.9392 62.4569 68.3697 61.7785 67.8925 61.127C69.648 60.7041 70.9524 59.1234 70.9524 57.2381V50.7269C70.9524 49.4272 70.3209 48.2085 69.2591 47.459L67.5602 46.2598C68.5405 44.3551 69.0952 42.1938 69.0952 39.9048C69.0952 32.2254 62.8699 26 55.1905 26C47.5111 26 41.2857 32.2254 41.2857 39.9048C41.2857 42.3225 41.9044 44.5972 42.9895 46.5776L41.7409 47.459C40.6791 48.2085 40.0476 49.4272 40.0476 50.7269V57.2381C40.0476 59.1234 41.352 60.7041 43.1075 61.127Z" fill="#F4F7FA"/>
<path d="M65.0952 39.9048C65.0952 42.7774 63.8723 45.3645 61.9187 47.1736L66.9524 50.7269V57.2381H62.0246C62.2622 60.2562 64.1987 63.2768 66.7045 65.9115C69.3638 68.7075 72.5633 70.9626 74.6881 72.1768L75 72.355V82H36V72.355L36.3119 72.1768C38.4367 70.9626 41.6362 68.7075 44.2955 65.9115C46.8013 63.2768 48.7378 60.2562 48.9754 57.2381H44.0476V50.7269L48.7357 47.4176C46.6234 45.6012 45.2857 42.9092 45.2857 39.9048C45.2857 34.4345 49.7202 30 55.1905 30C60.6607 30 65.0952 34.4345 65.0952 39.9048Z" fill="#34364C"/>
<path d="M43.1075 149.127C42.6303 149.778 42.0608 150.457 41.3971 151.155C39.0545 153.618 36.1816 155.644 34.3274 156.704L34.0154 156.882C32.7691 157.594 32 158.92 32 160.355V170C32 172.209 33.7909 174 36 174H75C77.2091 174 79 172.209 79 170V160.355C79 158.92 78.2309 157.594 76.9846 156.882L76.6727 156.704C74.8185 155.644 71.9455 153.618 69.6029 151.155C68.9392 150.457 68.3697 149.778 67.8925 149.127C69.648 148.704 70.9524 147.123 70.9524 145.238V138.727C70.9524 137.427 70.3209 136.208 69.2591 135.459L67.5602 134.26C68.5405 132.355 69.0952 130.194 69.0952 127.905C69.0952 120.225 62.8699 114 55.1905 114C47.5111 114 41.2857 120.225 41.2857 127.905C41.2857 130.323 41.9044 132.597 42.9895 134.578L41.7409 135.459C40.6791 136.208 40.0476 137.427 40.0476 138.727V145.238C40.0476 147.123 41.352 148.704 43.1075 149.127Z" fill="#34364C"/>
<path d="M65.0952 127.905C65.0952 130.777 63.8723 133.364 61.9187 135.174L66.9524 138.727V145.238H62.0246C62.2622 148.256 64.1987 151.277 66.7045 153.911C69.3638 156.708 72.5633 158.963 74.6881 160.177L75 160.355V170H36V160.355L36.3119 160.177C38.4367 158.963 41.6362 156.708 44.2955 153.911C46.8013 151.277 48.7378 148.256 48.9754 145.238H44.0476V138.727L48.7357 135.418C46.6234 133.601 45.2857 130.909 45.2857 127.905C45.2857 122.435 49.7202 118 55.1905 118C60.6607 118 65.0952 122.435 65.0952 127.905Z" fill="#F4F7FA"/>
<path d="M147 25C147.729 25 148.412 25.1948 149 25.5351C149.588 25.1948 150.271 25 151 25H162C162.729 25 163.412 25.1948 164 25.5351C164.588 25.1948 165.271 25 166 25H176C178.209 25 180 26.7909 180 29V38C180 39.259 179.407 40.4446 178.4 41.2L172.228 45.8291L173.976 61.5583C174.438 65.7226 176.376 67.8353 179.2 71.6C179.719 72.2924 180 73.1345 180 74V82C180 84.2091 178.209 86 176 86H137C134.791 86 133 84.2091 133 82V74C133 73.1345 133.281 72.2924 133.8 71.6C136.624 67.8353 138.562 65.7226 139.024 61.5583L140.772 45.8291L134.6 41.2C133.593 40.4446 133 39.259 133 38V29C133 26.7909 134.791 25 137 25H147Z" fill="#F4F7FA"/>
<path d="M137 29H147V35H151V29H162V35H166V29H176V38L168 44L170 62H143L145 44L137 38V29Z" fill="#34364C"/>
<path d="M143 66H170L176 74V82H137V74L143 66Z" fill="#34364C"/>
<path d="M147 113C147.729 113 148.412 113.195 149 113.535C149.588 113.195 150.271 113 151 113H162C162.729 113 163.412 113.195 164 113.535C164.588 113.195 165.271 113 166 113H176C178.209 113 180 114.791 180 117V126C180 127.259 179.407 128.445 178.4 129.2L172.228 133.829L173.976 149.558C174.438 153.723 176.376 155.835 179.2 159.6C179.719 160.292 180 161.135 180 162V170C180 172.209 178.209 174 176 174H137C134.791 174 133 172.209 133 170V162C133 161.135 133.281 160.292 133.8 159.6C136.624 155.835 138.562 153.723 139.024 149.558L140.772 133.829L134.6 129.2C133.593 128.445 133 127.259 133 126V117C133 114.791 134.791 113 137 113H147Z" fill="#34364C"/>
<path d="M137 117H147V123H151V117H162V123H166V117H176V126L168 132L170 150H143L145 132L137 126V117Z" fill="#F4F7FA"/>
<path d="M143 154H170L176 162V170H137V162L143 154Z" fill="#F4F7FA"/>
<path d="M248.314 36.8839C247.912 35.7797 247.692 34.5878 247.692 33.3462C247.692 27.6321 252.324 23 258.038 23C263.752 23 268.385 27.6321 268.385 33.3462C268.385 35.0199 267.985 36.6065 267.276 38.0095C268.296 38.0801 269.287 38.5398 270.01 39.366C273.938 43.8547 277.375 50.2548 277.375 57.6731C277.375 62.9766 275.549 66.9066 273.082 69.7383L277.768 70.5601C279.681 70.8957 281.077 72.5574 281.077 74.5V82C281.077 83.0609 280.655 84.0783 279.905 84.8284C279.155 85.5786 278.138 86 277.077 86L239 86C236.791 86 235 84.2091 235 82V74.5C235 72.5597 236.393 70.8992 238.303 70.5612L242.53 69.8134C240.029 66.9764 238.173 63.0244 238.173 57.6731C238.173 51.8853 240.416 46.8449 243.047 42.9821C244.7 40.5541 246.572 38.4927 248.314 36.8839Z" fill="#F4F7FA"/>
<path d="M260 57.1442H256C256 49.7994 258.228 42.4669 263.156 37.0997C263.928 36.0485 264.385 34.7506 264.385 33.3462C264.385 29.8413 261.543 27 258.038 27C254.534 27 251.692 29.8413 251.692 33.3462C251.692 35.0754 252.384 36.6431 253.506 37.7877C249.541 40.6138 242.173 48.1889 242.173 57.6731C242.173 67.2443 249.677 71.1192 253.614 71.9147L239 74.5V82L277.077 82V74.5L262.117 71.8762C266.098 70.9999 273.375 67.0985 273.375 57.6731C273.375 51.5015 270.5 46 267 42C263.156 45 260 52 260 57.1442Z" fill="#34364C"/>
<path d="M248.314 124.884C247.912 123.78 247.692 122.588 247.692 121.346C247.692 115.632 252.324 111 258.038 111C263.752 111 268.385 115.632 268.385 121.346C268.385 123.02 267.985 124.607 267.276 126.009C268.296 126.08 269.287 126.54 270.01 127.366C273.938 131.855 277.375 138.255 277.375 145.673C277.375 150.977 275.549 154.907 273.082 157.738L277.768 158.56C279.681 158.896 281.077 160.557 281.077 162.5V170C281.077 171.061 280.655 172.078 279.905 172.828C279.155 173.579 278.138 174 277.077 174L239 174C236.791 174 235 172.209 235 170V162.5C235 160.56 236.393 158.899 238.303 158.561L242.53 157.813C240.029 154.976 238.173 151.024 238.173 145.673C238.173 139.885 240.416 134.845 243.047 130.982C244.7 128.554 246.572 126.493 248.314 124.884Z" fill="#34364C"/>
<path d="M260 145.144H256C256 137.799 258.228 130.467 263.156 125.1C263.928 124.048 264.385 122.751 264.385 121.346C264.385 117.841 261.543 115 258.038 115C254.534 115 251.692 117.841 251.692 121.346C251.692 123.075 252.384 124.643 253.506 125.788C249.541 128.614 242.173 136.189 242.173 145.673C242.173 155.244 249.677 159.119 253.614 159.915L239 162.5V170L277.077 170V162.5L262.117 159.876C266.098 159 273.375 155.099 273.375 145.673C273.375 139.501 270.5 134 267 130C263.156 133 260 140 260 145.144Z" fill="#F4F7FA"/>
<path d="M352.69 20.507C354.007 20.3589 355.311 20.8725 356.173 21.8783L364.334 31.3968C373.706 33.7128 379.137 40.7698 382.14 49.5796C385.234 58.6575 386 70.182 386 82C386 84.2091 384.209 86 382 86H344.705C342.581 86 340.828 84.3406 340.711 82.2202C340.607 80.3281 341.042 77.0449 342.369 73.6914L342.393 73.63C338.626 75.6522 334.445 75.1678 331.341 72.958C327.569 70.2725 325.472 65.0154 327.868 59.8238C329.596 56.08 331.458 54.0976 332.867 52.5982C334.183 51.1977 334.731 50.5817 335.119 49.0299C337.472 39.6209 342.311 34.2007 347.508 31.7271C347.433 30.6552 347.494 29.6225 347.625 28.6849C347.953 26.3511 348.767 24.1944 349.598 22.6177C350.215 21.4455 351.373 20.655 352.69 20.507Z" fill="#F4F7FA"/>
<path fill-rule="evenodd" clip-rule="evenodd" d="M362.171 35.0185L353.137 24.4819C351.829 26.9645 350.561 31.3461 352.384 34.5091C351.499 34.5879 350.654 34.7375 350 35C345.828 36.6743 341.25 41 339 50C338.348 52.606 337.176 53.854 335.782 55.3372C334.468 56.7364 332.956 58.3448 331.5 61.5C328.5 68 336.596 74.5 342.5 68.5963C345.819 65.2772 348.72 63.9069 351.156 62.7566C354.662 61.1008 357.204 59.9004 358.639 54C359.322 56.7523 359.049 63.2477 352.492 67.211C345.934 71.1743 344.568 79.5229 344.705 81.9999H382C382 58.4832 378.886 38.1648 362.171 35.0185Z" fill="#34364C"/>
<circle cx="351" cy="47" r="3" fill="#F4F7FA"/>
<path d="M352.69 108.507C354.007 108.359 355.311 108.872 356.173 109.878L364.334 119.397C373.706 121.713 379.137 128.77 382.14 137.58C385.234 146.657 386 158.182 386 170C386 172.209 384.209 174 382 174H344.705C342.581 174 340.828 172.341 340.711 170.22C340.607 168.328 341.042 165.045 342.369 161.691L342.393 161.63C338.626 163.652 334.445 163.168 331.341 160.958C327.569 158.273 325.472 153.015 327.868 147.824C329.596 144.08 331.458 142.098 332.867 140.598C334.183 139.198 334.731 138.582 335.119 137.03C337.472 127.621 342.311 122.201 347.508 119.727C347.433 118.655 347.494 117.622 347.625 116.685C347.953 114.351 348.767 112.194 349.598 110.618C350.215 109.445 351.373 108.655 352.69 108.507Z" fill="#34364C"/>
<path fill-rule="evenodd" clip-rule="evenodd" d="M362.171 123.018L353.137 112.482C351.829 114.964 350.561 119.346 352.384 122.509C351.499 122.588 350.654 122.738 350 123C345.828 124.674 341.25 129 339 138C338.348 140.606 337.176 141.854 335.782 143.337C334.468 144.736 332.956 146.345 331.5 149.5C328.5 156 336.596 162.5 342.5 156.596C345.819 153.277 348.72 151.907 351.156 150.757C354.662 149.101 357.204 147.9 358.639 142C359.322 144.752 359.049 151.248 352.492 155.211C345.934 159.174 344.568 167.523 344.705 170H382C382 146.483 378.886 126.165 362.171 123.018Z" fill="#F4F7FA"/>
<circle cx="351" cy="135" r="3" fill="#34364C"/>
<path fill-rule="evenodd" clip-rule="evenodd" d="M454.002 23.8751C454.069 21.7156 455.84 20 458 20H464C466.16 20 467.931 21.7156 467.998 23.8751L468.033 25H470C472.209 25 474 26.7909 474 29V31.4261C478.36 30.4394 483.066 31.0984 487.061 34.4271C495.359 41.3423 494.595 55.8381 484.747 63.7669C482.371 65.6803 480.504 67.2665 479.218 68.901C478.924 69.2739 478.673 69.6347 478.462 69.9878L482.516 70.5361C484.499 70.8044 485.979 72.4981 485.979 74.5V82C485.979 84.2091 484.189 86 481.979 86H440.021C437.811 86 436.021 84.2091 436.021 82V74.5C436.021 72.4981 437.501 70.8044 439.484 70.5361L443.538 69.9878C443.327 69.6347 443.076 69.2739 442.782 68.901C441.496 67.2665 439.629 65.6803 437.253 63.7669C427.405 55.8381 426.641 41.3423 434.939 34.4271C438.934 31.0984 443.64 30.4394 448 31.4261V29C448 26.7909 449.791 25 452 25H453.967L454.002 23.8751Z" fill="#F4F7FA"/>
<path fill-rule="evenodd" clip-rule="evenodd" d="M458 24H464L464.156 29H470V35H464.344L464.619 41.793C464.728 41.6638 464.841 41.5372 464.957 41.4135C470.421 35.6071 478.521 32.5172 484.5 37.5C490.5 42.5 490.5 54 482.239 60.6512C477.559 64.4188 473.367 68.0509 473.574 73.3632L481.979 74.5V82H440.021V74.5L448.426 73.3632C448.633 68.0509 444.441 64.4188 439.761 60.6512C431.5 54 431.5 42.5 437.5 37.5C443.479 32.5172 451.579 35.6071 457.043 41.4135C457.159 41.5372 457.272 41.6638 457.381 41.793L457.656 35H452V29H457.844L458 24ZM452.348 46.9731C456.015 52.9791 456.5 60 456.5 63.0532C454.662 63.0565 447.734 60.0085 444.066 55.0046C441.425 51.4022 440.736 46.0575 443 43.9825C445.264 41.9075 450.056 43.2194 452.348 46.9731ZM469.652 46.9731C465.985 52.9791 465.5 60 465.5 63.0532C467.338 63.0565 474.266 60.0085 477.934 55.0046C480.575 51.4022 481.264 46.0575 479 43.9825C476.736 41.9075 471.944 43.2194 469.652 46.9731Z" fill="#34364C"/>
<path fill-rule="evenodd" clip-rule="evenodd" d="M454.002 111.875C454.069 109.716 455.84 108 458 108H464C466.16 108 467.931 109.716 467.998 111.875L468.033 113H470C472.209 113 474 114.791 474 117V119.426C478.36 118.439 483.066 119.098 487.061 122.427C495.359 129.342 494.595 143.838 484.747 151.767C482.371 153.68 480.504 155.267 479.218 156.901C478.924 157.274 478.673 157.635 478.462 157.988L482.516 158.536C484.499 158.804 485.979 160.498 485.979 162.5V170C485.979 172.209 484.189 174 481.979 174H440.021C437.811 174 436.021 172.209 436.021 170V162.5C436.021 160.498 437.501 158.804 439.484 158.536L443.538 157.988C443.327 157.635 443.076 157.274 442.782 156.901C441.496 155.267 439.629 153.68 437.253 151.767C427.405 143.838 426.641 129.342 434.939 122.427C438.934 119.098 443.64 118.439 448 119.426V117C448 114.791 449.791 113 452 113H453.967L454.002 111.875Z" fill="#34364C"/>
<path fill-rule="evenodd" clip-rule="evenodd" d="M458 112H464L464.156 117H470V123H464.344L464.619 129.793C464.728 129.664 464.841 129.537 464.957 129.413C470.421 123.607 478.521 120.517 484.5 125.5C490.5 130.5 490.5 142 482.239 148.651C477.559 152.419 473.367 156.051 473.574 161.363L481.979 162.5V170H440.021V162.5L448.426 161.363C448.633 156.051 444.441 152.419 439.761 148.651C431.5 142 431.5 130.5 437.5 125.5C443.479 120.517 451.579 123.607 457.043 129.413C457.159 129.537 457.272 129.664 457.381 129.793L457.656 123H452V117H457.844L458 112ZM452.348 134.973C456.015 140.979 456.5 148 456.5 151.053C454.662 151.057 447.734 148.008 444.066 143.005C441.425 139.402 440.736 134.057 443 131.982C445.264 129.908 450.056 131.219 452.348 134.973ZM469.652 134.973C465.985 140.979 465.5 148 465.5 151.053C467.338 151.057 474.266 148.008 477.934 143.005C480.575 139.402 481.264 134.057 479 131.982C476.736 129.908 471.944 131.219 469.652 134.973Z" fill="#F4F7FA"/>
<path d="M549 30C549 30.9873 549.159 31.9373 549.452 32.8258L547.478 33.752C545.841 32.0553 543.544 31 541 31C536.029 31 532 35.0294 532 40C532 44.4308 535.202 48.1138 539.418 48.8614L544.16 65.12C544.259 65.4594 544.403 65.7842 544.587 66.0858L547.32 70.5582L547.303 70.5612C545.393 70.8992 544 72.5597 544 74.5V82C544 84.2091 545.791 86 548 86L586.077 86C587.138 86 588.155 85.5786 588.905 84.8284C589.655 84.0783 590.077 83.0609 590.077 82V74.5C590.077 72.5574 588.681 70.8957 586.768 70.5601L586.687 70.546L589.413 66.0858C589.597 65.7842 589.741 65.4594 589.84 65.12L594.582 48.8614C598.798 48.1138 602 44.4308 602 40C602 35.0294 597.971 31 593 31C590.453 31 588.153 32.058 586.516 33.7584L584.545 32.8339C584.84 31.9431 585 30.9903 585 30C585 25.0294 580.971 21 576 21C571.029 21 567 25.0294 567 30C567 25.0294 562.971 21 558 21C553.029 21 549 25.0294 549 30Z" fill="#F4F7FA"/>
<path d="M559.795 34.6682C561.67 33.947 563 32.1288 563 30C563 27.2386 560.761 25 558 25C555.239 25 553 27.2386 553 30C553 32.5519 554.912 34.6572 557.381 34.9621L555.151 53L544.402 43.6641C545.385 42.751 546 41.4473 546 40C546 37.2386 543.761 35 541 35C538.239 35 536 37.2386 536 40C536 42.7614 538.239 45 541 45C541.486 45 541.956 44.9306 542.4 44.8013L548 64L553.791 73.4756L548 74.5V82L586.077 82V74.5L580.212 73.4714L586 64L591.6 44.8013C592.044 44.9306 592.514 45 593 45C595.761 45 598 42.7614 598 40C598 37.2386 595.761 35 593 35C590.239 35 588 37.2386 588 40C588 41.4473 588.615 42.751 589.598 43.6641L578.849 53L576.619 34.9621C579.088 34.6572 581 32.5519 581 30C581 27.2386 578.761 25 576 25C573.239 25 571 27.2386 571 30C571 32.1288 572.33 33.947 574.205 34.6682L567 51L559.795 34.6682Z" fill="#34364C"/>
<path d="M549 118C549 118.987 549.159 119.937 549.452 120.826L547.478 121.752C545.841 120.055 543.544 119 541 119C536.029 119 532 123.029 532 128C532 132.431 535.202 136.114 539.418 136.861L544.16 153.12C544.259 153.459 544.403 153.784 544.587 154.086L547.32 158.558L547.303 158.561C545.393 158.899 544 160.56 544 162.5V170C544 172.209 545.791 174 548 174L586.077 174C587.138 174 588.155 173.579 588.905 172.828C589.655 172.078 590.077 171.061 590.077 170V162.5C590.077 160.557 588.681 158.896 586.768 158.56L586.687 158.546L589.413 154.086C589.597 153.784 589.741 153.459 589.84 153.12L594.582 136.861C598.798 136.114 602 132.431 602 128C602 123.029 597.971 119 593 119C590.453 119 588.153 120.058 586.516 121.758L584.545 120.834C584.84 119.943 585 118.99 585 118C585 113.029 580.971 109 576 109C571.029 109 567 113.029 567 118C567 113.029 562.971 109 558 109C553.029 109 549 113.029 549 118Z" fill="#34364C"/>
<path d="M559.795 122.668C561.67 121.947 563 120.129 563 118C563 115.239 560.761 113 558 113C555.239 113 553 115.239 553 118C553 120.552 554.912 122.657 557.381 122.962L555.151 141L544.402 131.664C545.385 130.751 546 129.447 546 128C546 125.239 543.761 123 541 123C538.239 123 536 125.239 536 128C536 130.761 538.239 133 541 133C541.486 133 541.956 132.931 542.4 132.801L548 152L553.791 161.476L548 162.5V170L586.077 170V162.5L580.212 161.471L586 152L591.6 132.801C592.044 132.931 592.514 133 593 133C595.761 133 598 130.761 598 128C598 125.239 595.761 123 593 123C590.239 123 588 125.239 588 128C588 129.447 588.615 130.751 589.598 131.664L578.849 141L576.619 122.962C579.088 122.657 581 120.552 581 118C581 115.239 578.761 113 576 113C573.239 113 571 115.239 571 118C571 120.129 572.33 121.947 574.205 122.668L567 139L559.795 122.668Z" fill="#F4F7FA"/>
</svg>
